<svg width="51" height="51" viewBox="0 0 51 51" fill="none" xmlns="http://www.w3.org/2000/svg">
    <path d="M30.2464 10.535C31.3575 9.2405 33.0227 8.48576 34.7676 8.48576V8.48576C39.4303 8.48576 42.0241 13.4872 39.2162 17.0637L21.0123 40.251C19.7794 41.8214 17.8368 42.7515 15.7894 42.7515V42.7515C10.4532 42.7515 7.59813 36.9196 10.9963 32.9608L30.2464 10.535Z" fill="#35495E"/>
    <path d="M36.1513 26.4839C37.1618 25.2759 38.6977 24.5684 40.3097 24.5684V24.5684C44.5787 24.5684 46.9329 29.1674 44.3279 32.4178L37.6574 40.7412C36.6277 42.026 35.0245 42.7841 33.3371 42.7841V42.7841C28.9215 42.7841 26.5314 37.9843 29.2992 34.6754L36.1513 26.4839Z" fill="#4FFFD5"/>
    <path d="M14.2536 8.99609C15.2641 7.78808 16.8 7.08059 18.412 7.08059V7.08059C22.681 7.08058 25.0352 11.6795 22.4302 14.93L15.7597 23.2534C14.73 24.5382 13.1268 25.2963 11.4394 25.2963V25.2963C7.02381 25.2963 4.63366 20.4965 7.40151 17.1876L14.2536 8.99609Z" fill="#FF3E00"/>
</svg>
